<svg width="1024" height="1024" viewBox="0 0 1024 1024" xmlns="http://www.w3.org/2000/svg" role="img" aria-labelledby="title desc">
  <title id="title">AlanClaw Agent Team concept</title>
  <desc id="desc">A product logo concept showing AlanClaw as an AI agent team, with an A mark, nodes, and coordinated workflow paths.</desc>
  <defs>
    <linearGradient id="bg" x1="0" y1="0" x2="1" y2="1">
      <stop offset="0" stop-color="#07111f"/>
      <stop offset="0.55" stop-color="#101827"/>
      <stop offset="1" stop-color="#0b1220"/>
    </linearGradient>
    <linearGradient id="mark" x1="0" y1="0" x2="1" y2="1">
      <stop offset="0" stop-color="#e2e8f0"/>
      <stop offset="0.45" stop-color="#60a5fa"/>
      <stop offset="1" stop-color="#06b6d4"/>
    </linearGradient>
    <linearGradient id="line" x1="0" y1="0" x2="1" y2="0">
      <stop offset="0" stop-color="#22d3ee"/>
      <stop offset="1" stop-color="#818cf8"/>
    </linearGradient>
    <filter id="glow" x="-40%" y="-40%" width="180%" height="180%">
      <feGaussianBlur stdDeviation="5" result="blur"/>
      <feMerge>
        <feMergeNode in="blur"/>
        <feMergeNode in="SourceGraphic"/>
      </feMerge>
    </filter>
  </defs>
  <rect width="1024" height="1024" rx="128" fill="url(#bg)"/>
  <g opacity="0.18" stroke="#334155" stroke-width="2">
    <path d="M164 282h696M164 414h696M164 546h696M164 678h696"/>
    <path d="M282 164v608M414 164v608M546 164v608M678 164v608"/>
  </g>
  <g filter="url(#glow)">
    <path d="M512 168 230 744h114l54-112h228l54 112h114L512 168Zm0 204 72 154H440l72-154Z" fill="none" stroke="url(#mark)" stroke-width="46" stroke-linejoin="round"/>
    <path d="M381 637c65-104 157-157 276-159" fill="none" stroke="#0f172a" stroke-width="42" stroke-linecap="round"/>
    <path d="M381 637c65-104 157-157 276-159" fill="none" stroke="url(#line)" stroke-width="18" stroke-linecap="round"/>
    <path d="M330 528c152-54 289-49 411 18" fill="none" stroke="url(#line)" stroke-width="18" stroke-linecap="round"/>
    <path d="M298 700c154-40 311-37 471 10" fill="none" stroke="url(#line)" stroke-width="18" stroke-linecap="round"/>
    <circle cx="330" cy="528" r="28" fill="#0f172a" stroke="#22d3ee" stroke-width="8"/>
    <circle cx="657" cy="478" r="28" fill="#0f172a" stroke="#60a5fa" stroke-width="8"/>
    <circle cx="741" cy="546" r="28" fill="#0f172a" stroke="#818cf8" stroke-width="8"/>
    <circle cx="298" cy="700" r="24" fill="#0f172a" stroke="#22d3ee" stroke-width="8"/>
    <circle cx="769" cy="710" r="24" fill="#0f172a" stroke="#818cf8" stroke-width="8"/>
  </g>
  <text x="512" y="872" text-anchor="middle" font-family="Inter, Segoe UI, Arial, sans-serif" font-size="82" font-weight="760" letter-spacing="0" fill="#f8fafc">AlanClaw</text>
  <text x="512" y="922" text-anchor="middle" font-family="Inter, Segoe UI, Arial, sans-serif" font-size="30" font-weight="520" fill="#94a3b8">AI Agent Team</text>
</svg>
